<svg xmlns="http://www.w3.org/2000/svg" width="57" height="31" viewBox="0 0 57 31">
  <metadata><?xpacket begin="﻿" id="W5M0MpCehiHzreSzNTczkc9d"?>
<x:xmpmeta xmlns:x="adobe:ns:meta/" x:xmptk="Adobe XMP Core 5.6-c138 79.159824, 2016/09/14-01:09:01        ">
   <rdf:RDF xmlns:rdf="http://www.w3.org/1999/02/22-rdf-syntax-ns#">
      <rdf:Description rdf:about=""/>
   </rdf:RDF>
</x:xmpmeta>
                                                                                                    
                                                                                                    
                                                                                                    
                                                                                                    
                                                                                                    
                                                                                                    
                                                                                                    
                                                                                                    
                                                                                                    
                                                                                                    
                                                                                                    
                                                                                                    
                                                                                                    
                                                                                                    
                                                                                                    
                                                                                                    
                                                                                                    
                                                                                                    
                                                                                                    
                                                                                                    
                           
<?xpacket end="w"?></metadata>
<defs>
    <style>
      .cls-1 {
        fill: #fff;
        fill-rule: evenodd;
      }
    </style>
  </defs>
  <path id="_" data-name="" class="cls-1" d="M0.193,2.225a1.552,1.552,0,0,0,.117.586A2.257,2.257,0,0,0,.6,3.338L27.615,30.291a1.488,1.488,0,0,0,2.168,0L56.736,3.338a1.488,1.488,0,0,0,0-2.168A1.394,1.394,0,0,0,55.711.76a1.6,1.6,0,0,0-1.084.41L28.67,27.127,2.771,1.17A1.6,1.6,0,0,0,1.687.76,1.6,1.6,0,0,0,.6,1.17a2.556,2.556,0,0,0-.293.5,1.347,1.347,0,0,0-.117.557h0Z"/>
</svg>
